<svg width="54" height="54" viewBox="0 0 54 54" fill="none" xmlns="http://www.w3.org/2000/svg">
<g clip-path="url(#clip0_2561_3705)">
<path d="M6.18984 36.8699C5.079 36.8687 4.014 36.4269 3.22851 35.6414C2.44302 34.8559 2.00121 33.7909 2 32.68V10.1853C2.00121 9.07486 2.44317 8.01033 3.22879 7.22556C4.0144 6.4408 5.07942 6 6.18984 6L47.8147 6C48.9244 6.00121 49.9882 6.44254 50.7728 7.22717C51.5575 8.01181 51.9988 9.07565 52 10.1853V23.9903C51.9996 25.7325 51.3343 27.4088 50.1399 28.6771C49.4241 29.4567 47.2403 31.6223 45.6446 33.2043C45.0929 33.7469 44.6142 34.221 44.2768 34.5402C42.7586 36.0903 41.0399 36.8562 39.1797 36.8562L6.18984 36.8699Z" fill="url(#paint0_linear_2561_3705)"/>
<path d="M31.484 7.49072C31.9416 7.80387 32.301 8.24038 32.5205 8.74959C32.74 9.2588 32.8106 9.81982 32.7241 10.3675C32.5873 11.4663 31.7803 12.4875 31.2423 13.3583C31.0326 13.7003 30.832 14.024 30.6633 14.3568C30.2392 15.1482 30.0629 16.0489 30.1573 16.9418C30.2307 17.5693 30.3667 18.1878 30.563 18.7883C30.0617 18.6135 29.5977 18.3459 29.1953 17.9995C28.5379 17.3355 27.9777 16.5818 27.5312 15.761C25.9492 13.0483 24.0799 11.1289 21.9691 10.0438C20.3501 9.24616 18.5673 8.83715 16.7625 8.84934C16.1629 8.84962 15.564 8.89381 14.9708 8.98156C12.434 9.35785 10.1441 10.7089 8.58801 12.7474C7.82869 13.7388 7.21463 14.8333 6.76436 15.9981C6.34827 17.0882 6.10968 18.238 6.05769 19.4037C5.97107 21.4189 6.56375 23.5525 7.81296 25.7865C9.52717 28.8441 12.2225 31.2343 15.4632 32.5705C19.4752 34.1297 23.5055 34.3075 28.3063 33.2453C30.5448 32.7529 32.5098 32.5614 34.5705 33.2453C35.8996 33.7994 37.159 34.5079 38.3227 35.3561H35.5872C34.9214 34.9413 34.2061 34.612 33.4581 34.3759C31.7302 33.92 30.1527 34.2984 28.3154 34.6631C25.9343 35.1902 23.4923 35.3896 21.0572 35.2558C18.9629 35.0943 16.9048 34.6178 14.9526 33.8425C13.093 33.1075 11.3909 32.0243 9.93751 30.6511C8.61764 29.4176 7.49243 27.9911 6.60023 26.4202C5.23249 23.9902 4.57141 21.6058 4.6626 19.3353C4.7208 18.025 4.98703 16.7323 5.45133 15.5057C5.95014 14.2223 6.63028 13.0171 7.47102 11.9268C9.2479 9.59694 11.8663 8.05536 14.7656 7.63206C15.2774 7.55272 15.7936 7.50552 16.3112 7.49072H17.223C19.0915 7.53688 20.9268 7.99455 22.5982 8.83111C23.8664 9.49389 25.0145 10.3646 25.9948 11.407C27.0387 12.5124 27.9492 13.7365 28.7075 15.0543C28.7667 15.1637 28.8306 15.264 28.8944 15.3643C28.9942 14.8006 29.1819 14.256 29.4506 13.7504C29.6421 13.372 29.8655 13.0118 30.0798 12.6653C30.6496 11.7535 31.215 11.0058 31.1329 10.0575C31.0731 9.50762 30.8697 8.98313 30.5433 8.53662C30.2168 8.09011 29.7786 7.73728 29.2728 7.51352L31.484 7.49072Z" fill="white"/>
<path d="M9.68178 7.47722C8.74861 7.84546 7.91812 8.43353 7.26088 9.19145C7.23651 8.59984 7.12118 8.0155 6.91895 7.45898L9.68178 7.47722Z" fill="white"/>
<path d="M13.7854 35.3747H10.8448C10.0521 34.898 9.29066 34.3711 8.5652 33.7973C6.49022 32.175 4.76689 30.1477 3.5 27.8385V24.3462C5.19144 29.7305 9.3676 33.4371 13.7854 35.3747Z" fill="white"/>
<path d="M28.4927 11.407C27.9311 10.702 27.3218 10.0363 26.6691 9.41468C25.8538 8.64601 24.9326 7.9981 23.9336 7.49072H26.6189C27.1039 7.77146 27.5699 8.08367 28.014 8.42534C28.3801 8.69018 28.7031 9.01006 28.9714 9.37364C29.0853 9.53494 29.1637 9.71858 29.2013 9.91242C29.239 10.1063 29.2351 10.3059 29.1898 10.4981C29.1446 10.6903 29.059 10.8707 28.9389 11.0274C28.8187 11.1841 28.6666 11.3135 28.4927 11.407V11.407Z" fill="white"/>
<path d="M50.5093 10.1852V10.7961C49.5773 9.87474 48.3828 9.26473 47.09 9.04997C45.4629 8.75191 43.7943 8.76119 42.1707 9.07733C41.5419 9.19724 40.9297 9.39161 40.347 9.65634L40.0005 9.82958L39.6631 9.64722C38.5393 8.97804 37.2151 8.72773 35.9246 8.94055C36.0315 9.47299 36.0638 10.0177 36.0204 10.559C37.098 10.6705 38.1459 10.9796 39.1115 11.4709C39.5004 11.7005 39.8722 11.958 40.2239 12.2414C40.8618 11.6245 41.6463 11.1805 42.5035 10.9511C43.4864 10.6466 44.5215 10.5473 45.5444 10.6593C46.6872 10.7612 47.7854 11.1519 48.7358 11.7946C49.2692 12.1865 49.7053 12.6959 50.0104 13.2832C50.3156 13.8706 50.4816 14.5203 50.4956 15.182C50.5847 16.2166 50.409 17.2568 49.985 18.2047C49.2145 19.8369 47.4 20.9721 45.1979 21.232C44.6555 22.6141 43.8746 23.8902 42.891 25.0024C42.7816 25.1483 42.2801 25.7911 41.5962 26.5388C41.7877 26.4887 41.9883 26.4294 42.1934 26.3564C43.9222 25.8445 45.3981 24.7066 46.3331 23.165L46.5018 22.8778L46.8301 22.8322C48.233 22.5753 49.5279 21.9073 50.5503 20.9128V22.7046C50.2757 22.9034 49.9878 23.0831 49.6887 23.2425C48.9544 23.6482 48.165 23.9446 47.3453 24.1225C46.2126 25.8129 44.5315 27.0609 42.5855 27.6558C41.6791 27.954 40.7385 28.1363 39.7862 28.1983L38.0218 28.3123C38.9922 27.5611 39.8597 26.6859 40.6023 25.709C41.2534 24.8818 41.862 24.0221 42.426 23.1331C42.9546 22.3316 43.4021 21.4794 43.7618 20.5891L44.2177 19.422C44.4999 19.5145 44.7877 19.5891 45.0794 19.6454C45.8201 19.7117 46.5636 19.5543 47.2139 19.1934C47.8641 18.8325 48.3911 18.2848 48.7267 17.6211C49.051 16.882 49.1813 16.0722 49.1051 15.2686C48.9866 13.372 47.8012 12.3371 45.3575 12.0134C44.0217 11.8356 41.6737 12.2961 40.9169 13.5954L40.461 14.4024L39.8364 13.714C39.4304 13.2999 38.9703 12.9426 38.4686 12.6517C37.5468 12.1914 36.539 11.929 35.5098 11.8812C35.1037 11.8774 34.698 11.9079 34.297 11.9724L34.5295 11.0879C34.6868 10.2599 34.598 9.40405 34.2742 8.62597L33.9141 7.93754C34.7392 7.62928 35.6138 7.47476 36.4945 7.48163C37.7321 7.44887 38.9585 7.72297 40.0643 8.27948C41.2539 7.81806 42.5101 7.55173 43.7846 7.49075H45.5171C46.1283 7.52963 46.7371 7.60116 47.3407 7.70503C48.3082 7.87699 49.2356 8.22631 50.0762 8.73539C50.3565 9.16715 50.5069 9.6704 50.5093 10.1852V10.1852Z" fill="white"/>
<path d="M3.55962 10.1854V15.1503C3.72831 14.5986 3.94715 14.0378 4.17055 13.4634C4.57903 12.5061 4.88469 11.5081 5.08237 10.4863C5.24397 9.59649 5.17651 8.68024 4.88633 7.82373C4.47919 8.06832 4.14276 8.41471 3.91014 8.8288C3.67751 9.24289 3.55671 9.71041 3.55962 10.1854V10.1854Z" fill="white"/>
<path d="M44.6781 15.2461C43.7663 15.351 43.4608 15.9163 42.052 19.4223L42.0019 19.55C40.9793 22.0845 39.4246 24.3699 37.4428 26.2519C34.6408 28.8557 31.1667 30.6243 27.4127 31.3581C23.8447 32.1717 20.1201 31.9679 16.6622 30.77C13.7971 29.7944 11.3297 27.9082 9.63662 25.3993C8.55863 23.7508 8.00254 21.8156 8.04092 19.8463C8.13075 17.712 8.88821 15.6596 10.2065 13.9787C10.8104 13.179 11.5702 12.5101 12.4401 12.0124C13.3099 11.5148 14.2717 11.1989 15.2671 11.0836C15.6663 11.0334 16.0685 11.0105 16.4708 11.0153C18.0641 11.0213 19.6342 11.3975 21.0572 12.114C22.1566 12.6707 23.1454 13.4231 23.9751 14.3343C24.6555 15.0863 25.2517 15.9103 25.7531 16.7917C28.443 21.442 32.7697 21.5605 35.6373 20.2521C36.1827 20.0007 36.6511 19.6082 36.9941 19.1153C37.3371 18.6225 37.5424 18.0469 37.5887 17.4482C37.6273 17.0806 37.5623 16.7094 37.4012 16.3767C37.2401 16.044 36.9892 15.763 36.6768 15.5653C35.4687 14.8495 34.5432 15.1595 34.0827 15.6838C33.8511 15.9315 33.716 16.2539 33.7018 16.5927C33.6876 16.9314 33.7952 17.2641 34.0052 17.5303C34.1967 17.7537 34.6024 17.6944 34.7757 17.6442C35.186 17.5303 35.4823 16.6412 35.4823 16.6412C35.702 16.7644 35.8835 16.9458 36.0066 17.1655C36.0886 17.3165 36.1362 17.4836 36.1462 17.6551C36.1561 17.8266 36.128 17.9981 36.064 18.1575C36 18.3169 35.9016 18.4601 35.7758 18.5771C35.6501 18.6941 35.5 18.7819 35.3364 18.8342C34.3699 19.2627 33.3988 19.126 32.8426 18.4193C32.4377 17.8859 32.2363 17.2255 32.2748 16.557C32.3132 15.8884 32.5889 15.2555 33.0523 14.772C33.3392 14.4525 33.6909 14.1977 34.084 14.0248C34.4771 13.8519 34.9025 13.7646 35.3319 13.769C36.059 13.7837 36.7683 13.9965 37.3835 14.3845C37.9275 14.7049 38.3628 15.1814 38.6327 15.7522C38.8839 16.3033 38.9966 16.9074 38.961 17.512C38.9049 18.3655 38.6178 19.1876 38.1303 19.8903C37.6428 20.593 36.9733 21.1499 36.1936 21.5013C34.4286 22.3041 32.4567 22.5353 30.5539 22.1623C29.3989 21.9173 28.3103 21.4259 27.3625 20.7217C26.216 19.8448 25.2604 18.7434 24.5541 17.4847C23.6175 15.7251 22.18 14.2828 20.4235 13.3404C17.6288 11.9271 13.5666 11.7766 11.2961 14.7993C8.96187 17.9178 8.77494 21.5013 10.7901 24.6653C13.2611 28.5314 19.2655 31.6864 27.1118 30.0177C35.8744 28.1576 39.4077 22.3401 40.7527 19.0393L40.8028 18.9117C41.2507 17.6529 41.8011 16.433 42.4487 15.2644C42.657 14.881 42.9572 14.5553 43.3225 14.3166C43.6877 14.0778 44.1066 13.9335 44.5413 13.8966C44.9668 13.8283 45.4029 13.882 45.7991 14.0515C46.1953 14.2209 46.5354 14.4992 46.7799 14.8541C46.9884 15.1463 47.1116 15.4908 47.1358 15.8491C47.1599 16.2073 47.0841 16.5652 46.9166 16.8829C46.7316 17.2214 46.428 17.4796 46.0641 17.6078C44.6097 18.0637 44.5003 16.7734 44.5003 16.7734C45.1431 16.9011 45.5763 16.7005 45.7176 16.3175C45.7791 16.0745 45.7466 15.8172 45.6264 15.5972C45.5206 15.4516 45.3741 15.3406 45.2054 15.2782C45.0366 15.2157 44.8532 15.2046 44.6781 15.2461Z" fill="white"/>
<path d="M38.1588 30.1635C37.7789 30.4572 37.3798 30.7252 36.9643 30.9659C38.8284 31.8581 40.5444 33.0313 42.0523 34.4445C41.6236 34.7492 41.1454 34.9775 40.6389 35.1192C38.7697 33.4552 36.8093 32.2561 35.2136 31.8139L33.5586 31.358C34.4403 30.9953 35.2885 30.5559 36.0935 30.0449C36.0935 30.0449 37.484 30.1954 38.1588 30.1635Z" fill="white"/>
<path d="M19.8078 24.9342C19.0743 24.8198 18.3743 24.5476 17.7562 24.1364C16.6131 23.4241 15.7022 22.3944 15.1347 21.173C14.9075 20.6623 14.8164 20.1016 14.8703 19.5453C14.9348 19.2488 15.0622 18.9696 15.2438 18.7266C15.4255 18.4835 15.6573 18.2823 15.9234 18.1366C16.2269 17.9762 16.562 17.8849 16.9048 17.8692C17.2477 17.8534 17.5898 17.9136 17.9066 18.0454C18.8185 18.3919 19.3701 19.3858 19.7303 20.0514C19.7668 20.1107 19.7987 20.1745 19.8352 20.2292C20.4051 21.2072 21.0742 22.1239 21.8321 22.9647V22.9647C23.3111 24.5603 25.1271 25.8062 27.148 26.612L29.5643 27.4281L27.0751 27.9387C25.6807 28.1997 24.2618 28.3052 22.8442 28.2533C19.9491 28.1211 17.9568 27.615 15.9827 26.5163C14.2913 25.5117 12.9374 24.0261 12.0937 22.2489C11.7395 21.4188 11.576 20.5199 11.615 19.6183C11.6328 18.6035 11.9174 17.6114 12.4402 16.7415C13.0603 15.7476 14.3095 14.5485 16.7532 14.4619C17.7062 14.4875 18.6411 14.7275 19.4887 15.164C20.8844 15.9337 22.024 17.0955 22.7667 18.5059C23.6561 20.1423 24.9617 21.5149 26.5515 22.4852C28.1414 23.4554 29.9591 23.9888 31.8211 24.0315C32.9489 24.0318 34.075 23.948 35.1903 23.7808C34.2434 24.6523 33.0511 25.211 31.7755 25.381C29.7264 25.3235 27.7258 24.7445 25.9626 23.6987C24.1549 22.5986 22.6554 21.0583 21.6041 19.2216C20.9932 18.0424 20.0522 17.0665 18.896 16.4132C18.2369 16.07 17.5095 15.8784 16.7669 15.8524C15.2988 15.898 14.2274 16.4406 13.5755 17.4709C13.2171 18.1097 13.0077 18.8211 12.9627 19.5521C12.9177 20.2831 13.0383 21.0148 13.3156 21.6927C14.0318 23.2134 15.188 24.484 16.6346 25.34C18.4127 26.3111 20.2364 26.767 22.9126 26.8856C23.4563 26.9132 24.001 26.9132 24.5447 26.8856C23.1614 26.0887 21.907 25.0864 20.8245 23.913C20.0081 22.9924 19.2842 21.9937 18.6635 20.9313L18.554 20.7353C18.2942 20.2794 17.8519 19.5043 17.4143 19.3356C17.2838 19.2743 17.1413 19.2424 16.9971 19.2424C16.8529 19.2424 16.7104 19.2743 16.5799 19.3356C16.4911 19.3832 16.4127 19.4481 16.3493 19.5263C16.2859 19.6046 16.2388 19.6948 16.2106 19.7915C16.2172 20.0671 16.2744 20.3391 16.3793 20.5939C16.8742 21.4953 17.4691 22.338 18.1528 23.106C18.5996 23.6258 19.8078 24.9342 19.8078 24.9342Z" fill="white"/>
<path d="M48.9319 27.779L48.28 28.4492C47.7035 28.351 47.1511 28.1436 46.6523 27.8383C47.1594 27.4521 47.6186 27.0067 48.0201 26.5116L48.4395 25.8186C48.4395 25.8186 49.8073 25.586 50.4501 24.9067C50.4501 24.9067 50.3908 25.1757 50.4045 25.1666C50.2184 26.0713 49.7843 26.9063 49.1507 27.5784H49.1188L48.9319 27.779Z" fill="white"/>
<path d="M43.6204 33.1086C42.6272 32.5326 41.6994 31.8509 40.853 31.0752C40.5236 30.7678 40.1665 30.4915 39.7861 30.25C39.7861 30.25 40.5566 30.1634 41.3727 30.0129C42.5495 29.7753 43.6931 29.3956 44.7784 28.8822L45.1477 28.6953L45.6036 29.0418C46.0104 29.3686 46.4741 29.6175 46.9713 29.7758C46.634 30.1269 46.2555 30.5144 45.941 30.8107C45.6761 30.678 45.4216 30.5256 45.1796 30.3548C44.5043 30.6673 43.7984 30.9087 43.0733 31.0752C43.564 31.445 44.0839 31.7743 44.6279 32.06L43.6204 33.1086Z" fill="white"/>
<path d="M7.52571 35.3747H6.19901C5.48397 35.3747 4.79816 35.091 4.29213 34.5858C3.7861 34.0806 3.50121 33.3953 3.5 32.6802V31.3125C4.40271 32.817 5.61088 33.9978 7.52571 35.3747Z" fill="white"/>
<path d="M7.81264 46.1207H6.79139C6.79139 43.6907 5.66529 42.788 5.21849 42.5236C4.76258 42.788 3.64559 43.6953 3.64559 46.1207H2.62891C2.62891 42.4141 4.94495 41.5114 5.04525 41.475L5.21849 41.4111L5.3963 41.475C5.4966 41.5251 7.81264 42.4278 7.81264 46.1207Z" fill="url(#paint1_linear_2561_3705)"/>
<path d="M19.1554 46.1207H18.1387C18.1387 43.6907 17.0081 42.788 16.5658 42.5236C16.1099 42.788 14.9929 43.6953 14.9929 46.1207H13.9717C13.9717 42.4141 16.2877 41.5114 16.388 41.475L16.5886 41.4248L16.7619 41.4886C16.8394 41.5251 19.1554 42.4278 19.1554 46.1207Z" fill="url(#paint2_linear_2561_3705)"/>
<path d="M29.9652 41.5889H29.0215V46.1343H29.9652V41.5889Z" fill="url(#paint3_linear_2561_3705)"/>
<path d="M29.4685 39.6055C29.3487 39.6046 29.2314 39.6395 29.1316 39.7057C29.0317 39.7719 28.9539 39.8664 28.9081 39.9771C28.8622 40.0878 28.8505 40.2096 28.8743 40.327C28.8982 40.4444 28.9565 40.552 29.0419 40.6361C29.1272 40.7201 29.2357 40.7768 29.3535 40.7988C29.4712 40.8208 29.5929 40.8072 29.7028 40.7597C29.8128 40.7122 29.9061 40.6329 29.9707 40.5321C30.0354 40.4312 30.0685 40.3134 30.0658 40.1936C30.0622 40.0372 29.9979 39.8883 29.8864 39.7785C29.7749 39.6687 29.625 39.6066 29.4685 39.6055Z" fill="url(#paint4_linear_2561_3705)"/>
<path d="M51.2794 46.1207H50.2627C50.2627 43.6953 49.1321 42.788 48.6899 42.5236C48.2431 42.7971 47.1352 43.7044 47.1352 46.1207H46.0957C46.0957 42.4141 48.4117 41.516 48.512 41.4795L48.6899 41.4111L48.8631 41.4795C48.9588 41.5251 51.2794 42.4233 51.2794 46.1207Z" fill="url(#paint5_linear_2561_3705)"/>
<path d="M36.9776 41.4974L36.8044 41.4336L36.6266 41.4974C36.0828 41.7319 35.6109 42.1063 35.2588 42.5825C34.9026 42.1104 34.4318 41.737 33.8911 41.4974L33.7133 41.4336L33.5355 41.4974C33.4352 41.5339 31.1191 42.4092 31.1191 46.1386H32.1404C32.1404 43.7132 33.2665 42.8059 33.7133 42.5415C34.11 42.7954 34.4399 43.141 34.6753 43.549C34.3446 44.3649 34.1863 45.2404 34.2102 46.1204H35.2315C35.2315 43.6949 36.3576 42.7877 36.8044 42.5232C37.2603 42.7877 38.3773 43.6949 38.3773 46.1204H39.3848C39.3848 42.432 37.0779 41.5339 36.9776 41.4974Z" fill="url(#paint6_linear_2561_3705)"/>
<path d="M42.891 45.8699C43.6576 45.8774 44.4214 45.963 45.1706 46.1252V46.0705C45.1695 45.746 45.1877 45.4217 45.2253 45.0994C44.3971 44.9207 43.5512 44.8381 42.7041 44.8532H42.5764L44.9107 41.7712L45.0885 41.5615H40.4337V42.5782H43.0324L40.2969 46.1708C41.1453 45.9608 42.017 45.8597 42.891 45.8699V45.8699Z" fill="url(#paint7_linear_2561_3705)"/>
<path d="M23.2545 45.0399C23.831 45.6726 24.3469 46.3579 24.7955 47.0869V41.5886H23.829V44.2329C22.9516 43.2583 21.9176 42.437 20.7698 41.8029L20.0586 41.4746V46.1204H20.9978V43.0703C21.8421 43.6131 22.6025 44.2767 23.2545 45.0399V45.0399Z" fill="url(#paint8_linear_2561_3705)"/>
<path d="M8.83875 44.9671L8.48314 45.9199C9.11825 46.1314 9.78329 46.2392 10.4527 46.2391H10.6077C10.9451 46.2391 11.2414 46.2026 11.4922 46.1707C12.1531 46.0965 12.7825 45.8479 13.3158 45.4503L10.17 42.5325C10.3552 42.4991 10.5427 42.4793 10.7308 42.4732C11.3435 42.4469 11.957 42.5036 12.5544 42.6419L12.6775 42.145L12.8006 41.6526C12.2278 41.5203 11.6424 41.45 11.0545 41.4429H11.0226H10.7627H10.6624H10.4481H10.3387C9.61974 41.5305 8.93123 41.785 8.32812 42.186L11.4876 45.113C11.1854 45.1563 10.881 45.1821 10.5758 45.1905C9.9885 45.2104 9.40187 45.135 8.83875 44.9671V44.9671Z" fill="url(#paint9_linear_2561_3705)"/>
</g>
<defs>
<linearGradient id="paint0_linear_2561_3705" x1="12.951" y1="7.38598" x2="40.7891" y2="35.224" gradientUnits="userSpaceOnUse">
<stop stop-color="#FF00AE"/>
<stop offset="1" stop-color="#6800FF"/>
</linearGradient>
<linearGradient id="paint1_linear_2561_3705" x1="-8.17168" y1="31.4722" x2="14.0404" y2="53.6843" gradientUnits="userSpaceOnUse">
<stop stop-color="#FF00AE"/>
<stop offset="1" stop-color="#6800FF"/>
</linearGradient>
<linearGradient id="paint2_linear_2561_3705" x1="-2.50047" y1="25.7961" x2="19.7116" y2="48.0127" gradientUnits="userSpaceOnUse">
<stop stop-color="#FF00AE"/>
<stop offset="1" stop-color="#6800FF"/>
</linearGradient>
<linearGradient id="paint3_linear_2561_3705" x1="4.466" y1="18.8342" x2="26.6781" y2="41.0463" gradientUnits="userSpaceOnUse">
<stop stop-color="#FF00AE"/>
<stop offset="1" stop-color="#6800FF"/>
</linearGradient>
<linearGradient id="paint4_linear_2561_3705" x1="6.28076" y1="17.0196" x2="28.4928" y2="39.2317" gradientUnits="userSpaceOnUse">
<stop stop-color="#FF00AE"/>
<stop offset="1" stop-color="#6800FF"/>
</linearGradient>
<linearGradient id="paint5_linear_2561_3705" x1="13.5663" y1="9.73428" x2="35.7784" y2="31.9464" gradientUnits="userSpaceOnUse">
<stop stop-color="#FF00AE"/>
<stop offset="1" stop-color="#6800FF"/>
</linearGradient>
<linearGradient id="paint6_linear_2561_3705" x1="6.85088" y1="16.445" x2="29.063" y2="38.6571" gradientUnits="userSpaceOnUse">
<stop stop-color="#FF00AE"/>
<stop offset="1" stop-color="#6800FF"/>
</linearGradient>
<linearGradient id="paint7_linear_2561_3705" x1="11.05" y1="12.2372" x2="33.2667" y2="34.4538" gradientUnits="userSpaceOnUse">
<stop stop-color="#FF00AE"/>
<stop offset="1" stop-color="#6800FF"/>
</linearGradient>
<linearGradient id="paint8_linear_2561_3705" x1="0.923919" y1="22.3718" x2="23.136" y2="44.5839" gradientUnits="userSpaceOnUse">
<stop stop-color="#FF00AE"/>
<stop offset="1" stop-color="#6800FF"/>
</linearGradient>
<linearGradient id="paint9_linear_2561_3705" x1="-4.91159" y1="28.2123" x2="17.3005" y2="50.4244" gradientUnits="userSpaceOnUse">
<stop stop-color="#FF00AE"/>
<stop offset="1" stop-color="#6800FF"/>
</linearGradient>
<clipPath id="clip0_2561_3705">
<rect width="50" height="41.0869" fill="white" transform="translate(2 6)"/>
</clipPath>
</defs>
</svg>
