<svg width="54" height="54" viewBox="0 0 54 54" fill="none" xmlns="http://www.w3.org/2000/svg">
<g clip-path="url(#clip0_2561_3757)">
<path d="M52.0002 32.3128C51.3317 32.3235 50.6625 32.3235 49.9815 32.3235C49.956 32.0563 49.9334 31.795 49.9061 31.5344C49.8764 31.2529 49.8402 30.9721 49.8111 30.6912C49.7909 30.4959 49.7796 30.2999 49.7594 30.1052C49.7303 29.8237 49.6953 29.5429 49.6662 29.2621C49.646 29.0667 49.6335 28.8714 49.614 28.676C49.5837 28.3827 49.5492 28.09 49.5184 27.7967C49.5 27.6185 49.4863 27.4404 49.4679 27.2623C49.437 26.9607 49.4026 26.6596 49.3723 26.358C49.3527 26.1633 49.3414 25.9673 49.3212 25.7726C49.2921 25.4911 49.2565 25.2109 49.2274 24.9294C49.2197 24.8499 49.2274 24.7697 49.2274 24.6919L49.1764 24.6854C49.1199 24.8042 49.0618 24.9229 49.0077 25.0458C48.8807 25.3302 48.7566 25.6164 48.6289 25.9014C48.3653 26.4853 48.1017 27.0703 47.838 27.6565C47.561 28.276 47.2839 28.8957 47.0068 29.5156C46.853 29.8576 46.6962 30.1984 46.5425 30.541C46.2984 31.0849 46.0538 31.6282 45.8127 32.1732C45.7676 32.2754 45.7213 32.3448 45.5877 32.3276C45.4541 32.3104 45.3199 32.3276 45.1863 32.3211C45.1685 32.3191 45.1513 32.3131 45.136 32.3036C45.1208 32.294 45.108 32.2811 45.0985 32.2659C44.9203 31.8876 44.7422 31.5076 44.5641 31.1282C44.2438 30.4442 43.9234 29.7602 43.6028 29.0762C43.3534 28.5466 43.1017 28.0187 42.8529 27.4891C42.5398 26.8269 42.2286 26.1648 41.9195 25.503C41.7889 25.2239 41.6588 24.9449 41.5152 24.6367C41.5011 24.6842 41.4902 24.7326 41.4825 24.7816C41.457 25.1212 41.4344 25.4608 41.4083 25.8005C41.3863 26.0795 41.3596 26.358 41.3358 26.6365C41.3026 27.0228 41.2699 27.4095 41.2379 27.7967C41.2141 28.0835 41.1892 28.3702 41.1654 28.657C41.133 29.0442 41.1003 29.4309 41.0675 29.8172C41.0437 30.0957 41.0188 30.3748 40.995 30.6538C40.9618 31.0404 40.9309 31.4257 40.8965 31.8134C40.8816 31.9797 40.8602 32.1459 40.8412 32.3187H39.6816C39.7137 32.0248 39.747 31.7339 39.776 31.4423C39.7956 31.2393 39.8069 31.035 39.8265 30.8319C39.8562 30.5351 39.8918 30.2382 39.9215 29.9413C39.9411 29.746 39.9536 29.5506 39.9726 29.3553C40.0035 29.0376 40.0379 28.72 40.0682 28.4053C40.0872 28.2022 40.099 27.9986 40.1186 27.7955C40.1483 27.4986 40.184 27.2017 40.2136 26.9049C40.2338 26.7018 40.2451 26.4981 40.2647 26.2951C40.295 25.9851 40.3294 25.6758 40.3603 25.3664C40.3787 25.1836 40.393 25.0001 40.4108 24.8172C40.4422 24.4954 40.4755 24.1736 40.5064 23.8518C40.5248 23.6647 40.539 23.4777 40.5568 23.2907C40.5881 22.9649 40.6202 22.6391 40.653 22.3134C40.6601 22.2421 40.6417 22.1299 40.678 22.1085C40.7421 22.0705 40.8395 22.0818 40.9226 22.0812C41.4219 22.0812 41.9207 22.0812 42.42 22.0812C42.5121 22.0812 42.556 22.0984 42.5893 22.1958C42.652 22.3538 42.7233 22.5082 42.803 22.6583C43.0358 23.1476 43.2703 23.6362 43.5019 24.1261C43.7554 24.6605 44.0054 25.2002 44.2577 25.7369C44.51 26.2737 44.7606 26.8027 45.0112 27.3359C45.2716 27.8901 45.5317 28.4443 45.7914 28.9984C45.8246 29.0691 45.8549 29.1409 45.9018 29.2466C46.9789 26.8401 48.0423 24.4639 49.1081 22.0854H50.9256C50.9428 22.2041 50.9659 22.3288 50.9784 22.4529C51.0134 22.8091 51.0425 23.1612 51.0776 23.5151C51.1161 23.904 51.1583 24.2923 51.1963 24.6812C51.2343 25.0702 51.2771 25.4674 51.3151 25.8598C51.3471 26.1656 51.3804 26.4708 51.4124 26.776C51.4534 27.1691 51.4932 27.5621 51.5347 27.9546C51.5662 28.2604 51.5995 28.5656 51.6315 28.8708C51.6711 29.2595 51.7107 29.6484 51.7503 30.0375C51.7899 30.4266 51.8306 30.8195 51.8726 31.2161C51.8963 31.4459 51.9201 31.6763 51.9462 31.906C51.9526 31.9431 51.9657 31.9787 51.9848 32.0111C51.989 32.0182 51.9912 32.0263 51.9912 32.0346C51.9912 32.0428 51.989 32.0509 51.9848 32.058C51.9827 32.0844 51.9853 32.111 51.9925 32.1364L52.0002 32.3128Z" fill="#0664AE"/>
<path d="M7.26066 22C7.30766 22.0105 7.35524 22.0182 7.40316 22.0232C8.02691 22.0444 8.64074 22.1855 9.21114 22.4388C9.56918 22.59 9.90801 22.7831 10.2205 23.0141C10.5532 23.2503 10.851 23.5322 11.1052 23.8513C11.2881 24.0888 11.4668 24.3317 11.6574 24.5858L8.23441 27.2452C8.17148 26.9299 8.10973 26.6259 8.05035 26.3219C8.01532 26.1438 7.98207 25.9657 7.95476 25.7846C7.95384 25.7653 7.95714 25.7461 7.96442 25.7283C7.9717 25.7104 7.98279 25.6944 7.99691 25.6813C8.38998 25.3713 8.78463 25.0636 9.18086 24.758C9.34711 24.6291 9.51455 24.5015 9.70395 24.3566C9.56027 24.2438 9.42667 24.1268 9.2818 24.0271C8.81862 23.7046 8.2858 23.496 7.72675 23.4185C7.26947 23.3525 6.80387 23.3726 6.354 23.4779C5.88279 23.5827 5.43559 23.7754 5.03586 24.0461C4.39283 24.489 3.91486 25.0656 3.64114 25.8048C3.50472 26.1769 3.42214 26.5666 3.39592 26.962C3.36112 27.4783 3.43766 27.9961 3.62035 28.4802C3.77214 28.8854 3.99447 29.2605 4.27705 29.5882C4.64837 30.0227 5.11211 30.3688 5.63437 30.6011C5.9359 30.7502 6.2609 30.8463 6.59506 30.8849C6.89847 30.9122 7.20603 30.9496 7.50825 30.9289C7.95875 30.8931 8.39787 30.7694 8.80086 30.5649C9.25846 30.3423 9.66718 30.0309 10.0032 29.6487C10.4313 29.1583 10.7365 28.5978 10.8487 27.9494C10.8992 27.6561 10.9164 27.3557 10.9485 27.0588C10.9511 27.0469 10.9511 27.0345 10.9485 27.0226C10.8837 26.8587 10.9746 26.7726 11.0963 26.6812C11.449 26.4175 11.794 26.1426 12.1544 25.8624C12.2001 26.0342 12.2354 26.2087 12.2601 26.3849C12.2937 26.7203 12.31 27.0572 12.3088 27.3943C12.292 27.9469 12.179 28.4924 11.9751 29.0063C11.8039 29.4669 11.5623 29.8981 11.259 30.2846C11.0298 30.5579 10.7829 30.8158 10.5198 31.0565C10.182 31.3706 9.79508 31.6273 9.37442 31.8165C8.91486 32.0321 8.43688 32.2013 7.92804 32.2458C7.53557 32.2808 7.13775 32.3183 6.74706 32.2903C6.04589 32.2418 5.36341 32.0428 4.74611 31.7067C4.4044 31.5212 4.08353 31.2996 3.78898 31.0458C3.25544 30.5872 2.82331 30.0224 2.52013 29.3875C2.41068 29.1622 2.3178 28.9292 2.24225 28.6904C2.169 28.4365 2.10954 28.1789 2.06413 27.9185C2.02281 27.7169 2.00133 27.5116 2 27.3058C2 27.1817 2.00891 27.0576 2.01188 26.9335C2.019 26.6687 2.08431 26.4146 2.13419 26.1563C2.16863 25.9781 2.20425 25.7965 2.25294 25.6219C2.4021 25.1204 2.63235 24.6466 2.93457 24.2195C3.20753 23.8228 3.53606 23.4675 3.91011 23.1644C4.27318 22.864 4.67825 22.6183 5.11246 22.4352C5.6884 22.1942 6.28037 22.0368 6.90678 22.0232C6.94698 22.0191 6.98673 22.0113 7.02553 22H7.26066Z" fill="#0664AE"/>
<path d="M24.6929 32.421C24.586 32.4049 24.491 32.3842 24.396 32.3735C23.7666 32.2991 23.1553 32.114 22.5904 31.8266C22.5411 31.8023 22.4883 31.7857 22.4384 31.7619C22.3885 31.7382 22.3476 31.7144 22.2959 31.6871L22.7923 30.1505C23.2332 30.4249 23.7089 30.6392 24.2066 30.7876C24.5997 30.9021 24.9981 31.0251 25.4024 31.0696C25.862 31.1224 26.334 31.1082 26.7681 30.8992C26.8458 30.8612 26.9145 30.807 26.9697 30.7404C27.0249 30.6737 27.0653 30.5961 27.0881 30.5126C27.146 30.3157 27.1868 30.114 27.2098 29.91C27.2276 29.7196 27.2276 29.528 27.2098 29.3376C27.1849 29.0407 27.0026 28.824 26.7787 28.6477C26.3245 28.2914 25.7848 28.1014 25.2569 27.8918C24.7647 27.6971 24.2731 27.5017 23.8397 27.1882C23.2946 26.7946 22.8843 26.3047 22.7264 25.6356C22.6076 25.135 22.5714 24.6303 22.7382 24.1357C22.855 23.8073 23.0306 23.5028 23.2566 23.2374C23.5685 22.8611 23.9612 22.56 24.4055 22.3563C24.7374 22.1978 25.0927 22.094 25.4576 22.0487C25.5449 22.038 25.6322 22.0285 25.7236 22.0095C26.0698 22 26.4112 22 26.7639 22C26.8156 22.0083 26.8559 22.019 26.8969 22.0238C27.3161 22.0724 27.7353 22.1188 28.1551 22.1674C28.2768 22.1817 28.3991 22.1989 28.5202 22.2215C28.5481 22.2268 28.5944 22.2678 28.5915 22.2838C28.4911 22.779 28.3866 23.273 28.2869 23.745C27.8558 23.6388 27.4307 23.523 27.0002 23.4321C26.7236 23.3769 26.4438 23.3388 26.1624 23.3181C25.9012 23.2952 25.639 23.2871 25.3769 23.2938C25.1394 23.3009 24.9019 23.3365 24.7119 23.5081C24.591 23.6168 24.5078 23.7611 24.4744 23.9202C24.393 24.2765 24.3556 24.6398 24.5385 24.9789C24.6704 25.2036 24.8608 25.3883 25.0895 25.5132C25.6001 25.8202 26.1648 26.0049 26.7105 26.2341C27.3196 26.4894 27.9039 26.7851 28.351 27.2903C28.649 27.6318 28.8524 28.0453 28.9412 28.4897C29.0016 28.7938 29.0267 29.1038 29.016 29.4136C29.0068 29.8402 28.8823 30.2563 28.6556 30.6177C28.5159 30.8542 28.347 31.072 28.1527 31.2661C27.5963 31.807 26.942 32.1811 26.1701 32.3236C25.9867 32.3574 25.8002 32.3764 25.6108 32.4115C25.3056 32.421 25.0046 32.421 24.6929 32.421Z" fill="#0664AE"/>
<path d="M51.9996 32.1199C51.9925 32.101 51.9899 32.0807 51.9919 32.0605C51.9986 32.0796 52.0013 32.0998 51.9996 32.1199V32.1199Z" fill="white"/>
<path d="M38.3711 32.1455C38.4067 32.2049 38.4364 32.253 38.475 32.3177C38.4228 32.3177 38.3883 32.3237 38.3563 32.3237C37.6834 32.3237 37.0104 32.3237 36.3375 32.3237C36.3093 32.3275 36.2807 32.3223 36.2556 32.3089C36.2305 32.2955 36.2104 32.2744 36.198 32.2488C35.6654 31.36 35.131 30.4741 34.5966 29.5859C34.314 29.115 34.0367 28.6412 33.7565 28.1686C33.7464 28.1556 33.7353 28.1434 33.7232 28.1323L33.2761 28.8449L31.6682 31.4051C31.4901 31.6895 31.312 31.9751 31.1303 32.2578C31.1204 32.2742 31.1073 32.2883 31.0916 32.2994C31.076 32.3104 31.0582 32.3181 31.0395 32.3219C30.6238 32.326 30.2135 32.3248 29.7783 32.3248C29.8009 32.2815 29.8122 32.2542 29.8282 32.2298C30.2636 31.5751 30.7004 30.9206 31.1386 30.2663C31.3945 29.8845 31.6528 29.5057 31.9105 29.1257C32.3063 28.5426 32.7022 27.96 33.098 27.3777C33.1211 27.3523 33.1347 27.3197 33.1366 27.2854C33.1384 27.2511 33.1284 27.2172 33.1081 27.1895C32.8819 26.8279 32.6622 26.4621 32.4401 26.0976L31.5625 24.6589C31.2585 24.1593 30.9543 23.66 30.65 23.1609C30.4623 22.8541 30.2743 22.5473 30.0859 22.2405C30.0663 22.2079 30.0526 22.1717 30.0265 22.1218H30.1453C30.8109 22.1218 31.4765 22.1218 32.1421 22.1218C32.1772 22.1186 32.2125 22.1265 32.2431 22.1442C32.2736 22.162 32.2978 22.1888 32.3125 22.2209C32.6426 22.7921 32.9792 23.3598 33.3112 23.9304C33.5564 24.3501 33.7974 24.7723 34.0403 25.1933C34.1293 25.3471 34.2184 25.4996 34.3182 25.6683C34.444 25.4717 34.5658 25.2853 34.6833 25.0959C34.9363 24.6904 35.1862 24.2825 35.4392 23.8769C35.7867 23.32 36.135 22.7638 36.4842 22.2085C36.4967 22.1879 36.5133 22.1701 36.5328 22.1561C36.5524 22.1421 36.5747 22.1323 36.5982 22.1271C37.0037 22.1212 37.4098 22.1236 37.835 22.1236C37.7162 22.307 37.6147 22.4798 37.5025 22.6496C36.7527 23.7758 36.0018 24.9013 35.2498 26.0263C35.1447 26.1842 35.0431 26.3446 34.9428 26.5055C34.937 26.5163 34.9337 26.5284 34.933 26.5407C34.9324 26.553 34.9345 26.5653 34.9392 26.5767C35.2511 27.0858 35.5639 27.594 35.8774 28.1015L36.7537 29.5265L38.0452 31.6266C38.1544 31.797 38.2601 31.9662 38.3711 32.1455Z" fill="#0664AE"/>
<path d="M18.0618 22.0976C18.4478 22.1289 18.8275 22.214 19.1899 22.3505C19.5646 22.4924 19.9096 22.6896 20.1821 22.9936C20.4188 23.2472 20.5754 23.5651 20.6322 23.9073C20.6803 24.1844 20.696 24.4662 20.6791 24.7469C20.6072 25.5746 20.2391 26.2313 19.4779 26.6214C19.3081 26.7087 19.1217 26.7669 18.953 26.8357C19.7843 27.0139 20.4677 27.417 20.8649 28.2091C21.0236 28.5208 21.1121 28.8635 21.1244 29.2131C21.1291 29.3699 21.1541 29.5272 21.1458 29.6828C21.1173 30.2237 21.0092 30.742 20.6874 31.1969C20.4099 31.5803 20.0295 31.8774 19.5901 32.0536C19.2353 32.1986 18.863 32.2964 18.4828 32.3446C18.2564 32.3751 18.0284 32.3919 17.8 32.3951C17.4512 32.4026 17.1023 32.4026 16.7532 32.3951C16.3146 32.3848 15.8758 32.3683 15.4368 32.3458C15.1334 32.3303 14.8306 32.3001 14.5278 32.2739C14.4714 32.2657 14.4155 32.2542 14.3604 32.2395V22.1617C14.7024 22.1397 15.0408 22.1095 15.3798 22.0994C16.1224 22.0776 16.8654 22.0616 17.6088 22.0513C17.7598 22.0582 17.9102 22.0736 18.0594 22.0976M19.1015 29.8193C19.0938 29.545 19.1015 29.2695 19.0753 28.997C19.0471 28.6229 18.8911 28.2699 18.6336 27.9971C18.3557 27.7056 18.0036 27.55 17.6123 27.4817C17.4325 27.4477 17.2506 27.425 17.0679 27.4141C16.8232 27.4028 16.578 27.4111 16.3298 27.4111C16.3298 28.6835 16.3298 29.9411 16.3298 31.1986C16.3298 31.2746 16.3655 31.2984 16.4284 31.3025C16.5727 31.312 16.717 31.3263 16.8612 31.3257C17.0394 31.3257 17.2234 31.3192 17.4033 31.3014C17.6563 31.2764 17.9098 31.2479 18.1598 31.2034C18.5754 31.1292 18.8414 30.8762 18.959 30.4772C19.0183 30.2694 19.051 30.0533 19.1056 29.8211M16.3316 26.1042V26.394C16.6012 26.3809 16.8547 26.375 17.1071 26.356C17.3214 26.34 17.5357 26.318 17.7471 26.2824C18.1034 26.223 18.3884 26.0567 18.522 25.6969C18.6159 25.4179 18.664 25.1256 18.6645 24.8312C18.6704 24.6231 18.6543 24.4149 18.6164 24.2102C18.5445 23.8082 18.3486 23.4917 17.9591 23.3112C17.439 23.0707 16.8957 23.0434 16.3316 23.1022V26.1042Z" fill="#0664AE"/>
<path d="M5.54199 28.4719C5.69518 28.175 5.84659 27.8829 6.00275 27.5901C6.09715 27.412 6.19868 27.238 6.29962 27.0623C6.32278 27.0219 6.3489 26.9839 6.39225 26.915C6.43084 27.1044 6.46231 27.2606 6.49437 27.4174C6.54009 27.6418 6.58344 27.8668 6.63272 28.0907C6.64756 28.1584 6.64637 28.2094 6.56978 28.2302L5.61384 28.498C5.59395 28.5012 5.57358 28.4996 5.55446 28.4932C5.54259 28.4837 5.54199 28.479 5.54199 28.4719Z" fill="#0664AE"/>
<path d="M7.34412 26.4531C7.40349 26.7346 7.45812 27.0053 7.51393 27.2761C7.54481 27.4269 7.57331 27.5777 7.60656 27.7333L7.30968 27.9577C7.22537 27.5142 7.15174 27.0861 7.04724 26.6663C6.99855 26.4709 7.07159 26.3694 7.21824 26.2863L7.30909 26.2305C7.32215 26.3053 7.33343 26.373 7.34412 26.4531Z" fill="#0664AE"/>
<path d="M7.79181 26.0115C7.8874 26.4723 7.97706 26.9253 8.06672 27.3771L7.77696 27.5933C7.679 27.1105 7.58518 26.651 7.49434 26.1908C7.48009 26.1184 7.48543 26.0519 7.57212 26.0127C7.64171 25.9697 7.70694 25.92 7.76687 25.8643C7.77264 25.9137 7.78096 25.9629 7.79181 26.0115V26.0115Z" fill="#0664AE"/>
<path d="M6.7602 27.7726C6.69548 27.4568 6.63076 27.1522 6.57139 26.847C6.57083 26.836 6.57267 26.8249 6.57677 26.8147C6.58087 26.8044 6.58713 26.7952 6.59514 26.7876C6.67232 26.7211 6.75307 26.6588 6.84214 26.5869C6.94011 27.0619 7.03451 27.5179 7.12654 27.9733C7.13961 28.0392 7.12655 28.0784 7.03808 28.0921C6.82611 28.1325 6.82729 28.1408 6.78811 27.9353C6.77564 27.8849 6.76851 27.8338 6.7602 27.7726Z" fill="#0664AE"/>
<path d="M5.53548 28.4766C5.54201 28.4766 5.5426 28.4837 5.54319 28.4962C5.54045 28.5044 5.53527 28.5117 5.52835 28.5169C5.52802 28.5031 5.53044 28.4894 5.53548 28.4766V28.4766Z" fill="#0664AE"/>
</g>
<defs>
<clipPath id="clip0_2561_3757">
<rect width="50" height="10.421" fill="white" transform="translate(2 22)"/>
</clipPath>
</defs>
</svg>
