<svg xmlns="http://www.w3.org/2000/svg" width="31" height="31" viewBox="0 0 31 31">
  <g fill="#FF6B6B" fill-rule="evenodd">
    <path d="M15.4485352,28.3737793 L3.86210352,28.3737793 C3.15146484,28.3737793 2.57475586,27.7970098 2.57475586,27.0864316 L2.57475586,3.91362891 C2.57475586,3.20299023 3.15152539,2.62628125 3.86210352,2.62628125 L15.4485352,2.62628125 C16.1604453,2.62628125 16.7358828,2.05084375 16.7358828,1.33893359 C16.7358828,0.627023437 16.1604453,0.0514648437 15.4485352,0.0514648437 L3.86210352,0.0514648437 C1.73279102,0.0514648437 0,1.78431641 0,3.91362891 L0,27.0863711 C0,29.2156836 1.73279102,30.9484746 3.86210352,30.9484746 L15.4485352,30.9484746 C16.1604453,30.9484746 16.7358828,30.3730371 16.7358828,29.661127 C16.7358828,28.9492168 16.1604453,28.3737793 15.4485352,28.3737793 Z"/>
    <path d="M30.616375,14.5833809 L22.7891172,6.85911328 C22.284459,6.35960156 21.4682871,6.36608008 20.9687754,6.87200977 C20.4692637,7.37793945 20.4744102,8.19283984 20.9816719,8.69235156 L26.5752949,14.2125918 L11.5863711,14.2125918 C10.8744609,14.2125918 10.2990234,14.7880293 10.2990234,15.4999395 C10.2990234,16.2118496 10.8744609,16.7873477 11.5863711,16.7873477 L26.5752949,16.7873477 L20.9816719,22.3075879 C20.4744707,22.8070996 20.4705957,23.622 20.9687754,24.1279297 C21.2210742,24.382832 21.5532344,24.5115547 21.8853945,24.5115547 C22.2124082,24.5115547 22.5393613,24.3879785 22.7891172,24.1407656 L30.616375,16.416498 C30.8609844,16.1744922 31,15.844875 31,15.4998789 C31,15.1550039 30.8622559,14.8267188 30.616375,14.5833809 Z"/>
  </g>
</svg>
