<svg width="121" height="69" viewBox="0 0 121 69" fill="none" xmlns="http://www.w3.org/2000/svg">
<g clip-path="url(#clip0_226_418)">
<path d="M0 18.08C0 12.79 3.64 8.89999 9.11 8.89999C10.69 8.89999 12.19 9.31999 13.45 10.06V1.01999H18.29V26.98H13.6L13.49 26.03L12.51 26.49C11.67 26.91 10.27 27.33 8.9 27.33C3.68 27.33 0 23.44 0 18.08ZM9.25 22.92C9.95 22.92 10.44 22.85 11.53 22.43L13.46 21.59V14.76C12.27 13.88 10.83 13.32 9.47 13.32C6.6 13.32 4.88 15.39 4.88 18.09C4.88 20.79 6.6 22.93 9.26 22.93L9.25 22.92Z" fill="black"/>
<path d="M24.44 0C26.23 0 27.56 1.23 27.56 2.98C27.56 4.73 26.23 5.99 24.44 5.99C22.65 5.99 21.36 4.8 21.36 2.98C21.36 1.16 22.69 0 24.44 0ZM22.06 9.25H26.86V26.98H22.06V9.25Z" fill="black"/>
<path d="M35 33.71L28.62 31.4L30.2 27.27L36.4 29.48C37.24 29.8 38.05 29.94 38.99 29.94C41.62 29.94 42.7 28.47 42.7 25.28V24.79L41.68 25.21C40.84 25.6 39.44 26.02 38.11 26.02C33.06 26.02 29.46 22.41 29.46 17.47C29.46 12.53 33.03 8.92001 38.4 8.92001C40.22 8.92001 41.87 9.41001 43.24 10.29L43.8 9.27001H47.55V25.82C47.55 31.32 44.12 34.33 38.89 34.33C37.49 34.33 36.05 34.05 35 33.7V33.71ZM38.54 21.73C39.07 21.73 39.73 21.69 40.71 21.31L42.71 20.54V14.44C41.52 13.63 40.12 13.14 38.82 13.14C35.88 13.14 34.23 15 34.23 17.45C34.23 19.9 35.88 21.72 38.54 21.72V21.73Z" fill="black"/>
<path d="M53.69 0C55.48 0 56.81 1.23 56.81 2.98C56.81 4.73 55.48 5.99 53.69 5.99C51.9 5.99 50.61 4.8 50.61 2.98C50.61 1.16 51.94 0 53.69 0ZM51.31 9.25H56.11V26.98H51.31V9.25Z" fill="black"/>
<path d="M61.05 22.11V13.6H57.65V9.26H61.05V4.38H65.89V9.25H71.08V13.59H65.89V21.75C65.89 22.31 66.06 22.66 66.66 22.66C67.12 22.66 67.61 22.52 68.59 22.2L70.9 21.46L72.23 25.56L70.16 26.3C68.58 26.86 66.94 27.32 65.75 27.32C62.6 27.32 61.05 25.99 61.05 22.1V22.11Z" fill="black"/>
<path d="M72.99 21.65C72.99 18.01 75.83 15.97 79.65 15.97C81.47 15.97 83.05 16.5 84.28 17.2V14.61C84.28 13.52 83.96 13.14 82.63 13.14C81.12 13.14 77.37 13.74 74.71 14.23L74.04 10.06C76.21 9.66999 80.98 8.89999 82.87 8.89999C86.79 8.89999 89 10.58 89 14.58V26.98H84.27V25.82L83.15 26.49C82.1 27.12 80.87 27.33 79.65 27.33C75.83 27.33 72.99 25.26 72.99 21.65ZM80.7 23.75C81.4 23.75 82.1 23.57 82.7 23.29L84.28 22.52V20.8C83.51 19.99 82.18 19.54 80.71 19.54C78.75 19.54 77.73 20.31 77.73 21.68C77.73 22.94 78.75 23.75 80.71 23.75H80.7Z" fill="black"/>
<path d="M92.64 1.01999H97.44V26.98H92.64V1.01999Z" fill="black"/>
<path d="M1.19 34.77H5.99V60.73H1.19V34.77Z" fill="black"/>
<path d="M8.75 51.87C8.75 46.58 12.67 42.65 18.18 42.65C23.69 42.65 27.61 46.57 27.61 51.87C27.61 57.17 23.65 61.09 18.18 61.09C12.71 61.09 8.75 57.2 8.75 51.87ZM18.18 56.67C21.02 56.67 22.7 54.67 22.7 51.87C22.7 49.07 21.02 47.07 18.18 47.07C15.34 47.07 13.62 49.07 13.62 51.87C13.62 54.67 15.34 56.67 18.18 56.67Z" fill="black"/>
<path d="M34.88 67.47L28.5 65.16L30.08 61.03L36.28 63.24C37.12 63.56 37.93 63.7 38.87 63.7C41.5 63.7 42.58 62.23 42.58 59.04V58.55L41.56 58.97C40.72 59.36 39.32 59.78 37.99 59.78C32.94 59.78 29.34 56.17 29.34 51.23C29.34 46.29 32.91 42.68 38.28 42.68C40.1 42.68 41.75 43.17 43.12 44.05L43.68 43.03H47.43V59.6C47.43 65.1 44 68.11 38.77 68.11C37.37 68.11 35.93 67.83 34.88 67.48V67.47ZM38.42 55.49C38.95 55.49 39.61 55.45 40.59 55.07L42.59 54.3V48.2C41.4 47.39 40 46.9 38.7 46.9C35.76 46.9 34.11 48.76 34.11 51.21C34.11 53.66 35.76 55.48 38.42 55.48V55.49Z" fill="black"/>
<path d="M53.57 33.76C55.36 33.76 56.69 34.99 56.69 36.74C56.69 38.49 55.36 39.75 53.57 39.75C51.78 39.75 50.49 38.56 50.49 36.74C50.49 34.92 51.82 33.76 53.57 33.76ZM51.19 43.01H55.99V60.74H51.19V43.01Z" fill="black"/>
<path d="M59.73 43.01H64.22V44.55C65.73 43.57 67.65 42.66 69.9 42.66C74.42 42.66 76.87 45.67 76.87 50.3V60.74H72.03V51.03C72.03 48.33 70.98 47.18 68.88 47.18C67.44 47.18 65.8 47.95 64.54 48.86V60.74H59.74V43.01H59.73Z" fill="black"/>
<path d="M112.16 23.46C116.529 23.46 120.07 19.9186 120.07 15.55C120.07 11.1814 116.529 7.64001 112.16 7.64001C107.791 7.64001 104.25 11.1814 104.25 15.55C104.25 19.9186 107.791 23.46 112.16 23.46Z" fill="#007AD1"/>
</g>
<defs>
<clipPath id="clip0_226_418">
<rect width="120.07" height="68.1" fill="white"/>
</clipPath>
</defs>
</svg>
