<svg width="54" height="54" viewBox="0 0 54 54" fill="none" xmlns="http://www.w3.org/2000/svg">
<path d="M40.0685 32.6641H12.9312C10.7637 32.6641 9 34.4278 9 36.5953V42.617C9 44.7845 10.7637 46.5482 12.9312 46.5482H40.0685C42.2363 46.5482 44 44.7845 44 42.617V36.5953C44 34.4278 42.2363 32.6641 40.0685 32.6641V32.6641ZM41.7413 42.617C41.7413 43.5393 40.9908 44.2896 40.0685 44.2896H12.9312C12.0089 44.2896 11.2587 43.5393 11.2587 42.617V36.5953C11.2587 35.673 12.0089 34.9228 12.9312 34.9228H40.0685C40.9908 34.9228 41.7413 35.673 41.7413 36.5953V42.617Z" fill="#026DD6"/>
<path d="M38.2885 38.1345L37.9938 38.2303V37.9204C37.9938 37.2966 37.4883 36.791 36.8645 36.791C36.241 36.791 35.7351 37.2966 35.7351 37.9204V38.2303L35.4404 38.1345C34.8472 37.9415 34.2102 38.2662 34.0176 38.8594C33.8246 39.4526 34.1493 40.0899 34.7425 40.2826L35.0372 40.3785L34.8552 40.629C34.4884 41.1337 34.6002 41.8398 35.1049 42.2066C35.3054 42.3522 35.5378 42.4222 35.7678 42.4222C36.1172 42.4222 36.4616 42.2607 36.6824 41.9566L36.8645 41.706L37.0465 41.9566C37.2677 42.261 37.6121 42.4222 37.9612 42.4222C38.1915 42.4222 38.4238 42.3522 38.6241 42.2066C39.1287 41.8398 39.2405 41.1337 38.8741 40.629L38.6917 40.3785L38.9864 40.2826C39.5796 40.0899 39.9043 39.4526 39.7117 38.8594C39.5187 38.2662 38.882 37.9418 38.2885 38.1345V38.1345Z" fill="#026DD6"/>
<path d="M31.3785 38.1345L31.0838 38.2303V37.9204C31.0838 37.2966 30.578 36.791 29.9545 36.791C29.3307 36.791 28.8252 37.2966 28.8252 37.9204V38.2303L28.5305 38.1345C27.937 37.9415 27.2999 38.2662 27.1073 38.8594C26.9147 39.4526 27.2391 40.0899 27.8323 40.2826L28.127 40.3785L27.9449 40.629C27.5785 41.1337 27.6902 41.8398 28.1946 42.2066C28.3952 42.3522 28.6275 42.4222 28.8578 42.4222C29.2069 42.4222 29.5513 42.2607 29.7722 41.9566L29.9542 41.706L30.1365 41.9566C30.3574 42.261 30.7018 42.4222 31.0509 42.4222C31.2812 42.4222 31.5135 42.3522 31.7138 42.2066C32.2185 41.8398 32.3305 41.1337 31.9638 40.629L31.7817 40.3785L32.0764 40.2826C32.6696 40.0899 32.994 39.4526 32.8014 38.8594C32.6088 38.2662 31.9717 37.9418 31.3785 38.1345V38.1345Z" fill="#026DD6"/>
<path d="M24.4703 38.1345L24.1756 38.2303V37.9204C24.1756 37.2966 23.6701 36.791 23.0463 36.791C22.4225 36.791 21.9169 37.2966 21.9169 37.9204V38.2303L21.6222 38.1345C21.029 37.9415 20.392 38.2662 20.1991 38.8594C20.0064 39.4526 20.3311 40.0899 20.9243 40.2826L21.219 40.3785L21.0367 40.629C20.6702 41.1337 20.782 41.8398 21.2867 42.2066C21.4872 42.3522 21.7193 42.4222 21.9496 42.4222C22.2987 42.4222 22.6431 42.2607 22.8639 41.9566L23.0463 41.706L23.2283 41.9566C23.4492 42.261 23.7936 42.4222 24.143 42.4222C24.373 42.4222 24.6053 42.3522 24.8059 42.2066C25.3103 41.8398 25.4223 41.1337 25.0556 40.629L24.8735 40.3785L25.1682 40.2826C25.7614 40.0899 26.0858 39.4526 25.8932 38.8594C25.7008 38.2662 25.0635 37.9418 24.4703 38.1345V38.1345Z" fill="#026DD6"/>
<path d="M17.558 38.1345L17.2633 38.2303V37.9204C17.2633 37.2966 16.7578 36.791 16.134 36.791C15.5105 36.791 15.0047 37.2966 15.0047 37.9204V38.2303L14.71 38.1345C14.1168 37.9415 13.4797 38.2662 13.2871 38.8594C13.0942 39.4526 13.4189 40.0899 14.0121 40.2826L14.3068 40.3785L14.1247 40.629C13.758 41.1337 13.8697 41.8398 14.3744 42.2066C14.575 42.3522 14.807 42.4222 15.0373 42.4222C15.3864 42.4222 15.7308 42.2607 15.952 41.9566L16.134 41.706L16.316 41.9566C16.5372 42.261 16.8816 42.4222 17.2307 42.4222C17.461 42.4222 17.6933 42.3522 17.8936 42.2066C18.3983 41.8398 18.51 41.1337 18.1433 40.629L17.9612 40.3785L18.2559 40.2826C18.8491 40.0899 19.1738 39.4526 18.9809 38.8594C18.7886 38.2662 18.1512 37.9418 17.558 38.1345V38.1345Z" fill="#026DD6"/>
<path d="M26.5008 30.4728C32.6966 30.4728 37.7372 25.4319 37.7372 19.2364C37.7372 13.0406 32.6966 8 26.5008 8C20.3052 8 15.2646 13.0406 15.2646 19.2364C15.2646 25.4319 20.3052 30.4728 26.5008 30.4728V30.4728ZM21.9857 26.9933V25.8466C21.9857 24.4564 22.6289 23.155 23.7015 22.3059C24.5082 22.8303 25.469 23.1362 26.5008 23.1362C27.5325 23.1362 28.4936 22.8303 29.3003 22.3059C30.3726 23.155 31.0161 24.4564 31.0161 25.8466V26.9933C29.6888 27.7688 28.146 28.2141 26.5008 28.2141C24.8558 28.2141 23.313 27.7688 21.9857 26.9933ZM26.5008 20.8775C24.9061 20.8775 23.6089 19.5802 23.6089 17.9856C23.6089 16.391 24.9061 15.0937 26.5008 15.0937C28.0954 15.0937 29.3929 16.391 29.3929 17.9856C29.3929 19.5802 28.0954 20.8775 26.5008 20.8775V20.8775ZM26.5008 10.2587C31.4511 10.2587 35.4785 14.2861 35.4785 19.2364C35.4785 21.5048 34.6323 23.5788 33.2398 25.1611C33.0618 23.4164 32.211 21.8127 30.8849 20.6851C31.3705 19.8996 31.6516 18.9749 31.6516 17.9856C31.6516 15.1455 29.3409 12.835 26.5008 12.835C23.6609 12.835 21.3502 15.1455 21.3502 17.9856C21.3502 18.9749 21.6313 19.8996 22.1166 20.6851C20.7908 21.8127 19.94 23.4164 19.762 25.1611C18.3695 23.5791 17.5233 21.5048 17.5233 19.2364C17.5233 14.2861 21.5505 10.2587 26.5008 10.2587V10.2587Z" fill="#026DD6"/>
</svg>
