<svg width="20" height="20" viewBox="0 0 20 20" fill="none" xmlns="http://www.w3.org/2000/svg">
<path d="M9 6C9 5.44772 9.44771 5 10 5C10.5523 5 11 5.44772 11 6C11 6.55228 10.5523 7 10 7C9.44771 7 9 6.55228 9 6Z" fill="#B0B7C3"/>
<path d="M9 9.5C9 8.94772 9.44771 8.5 10 8.5C10.5523 8.5 11 8.94772 11 9.5V13.5C11 14.0523 10.5523 14.5 10 14.5C9.44771 14.5 9 14.0523 9 13.5V9.5Z" fill="#B0B7C3"/>
<path fill-rule="evenodd" clip-rule="evenodd" d="M0 10C0 15.5228 4.47715 20 10 20C15.5228 20 20 15.5228 20 10C20 4.47715 15.5228 0 10 0C4.47715 0 0 4.47715 0 10ZM18 10C18 14.4183 14.4183 18 10 18C5.58172 18 2 14.4183 2 10C2 5.58172 5.58172 2 10 2C14.4183 2 18 5.58172 18 10Z" fill="#B0B7C3"/>
</svg>
