<svg width="54" height="54" viewBox="0 0 54 54" fill="none" xmlns="http://www.w3.org/2000/svg">
<g clip-path="url(#clip0_2561_3743)">
<path d="M18.0133 14H13.8115V16.6266H18.0133V14Z" fill="#1D204F"/>
<path d="M2.18414 25.5325C3.22419 26.5948 4.78427 27.4356 6.65628 27.4356C7.44686 27.4356 8.19566 27.1479 8.19566 26.5725C8.19566 25.9972 7.61317 25.7096 6.2403 25.4441C3.95231 25.0016 0.457947 24.4261 0.457947 20.7308C0.457947 18.2305 2.41312 15.9512 6.2198 15.9512C8.4871 15.9512 10.5256 16.6371 12.1064 18.0092L9.85978 21.1733C8.65322 20.1998 7.09315 19.713 5.99063 19.713C4.95058 19.713 4.7218 20.1112 4.7218 20.4865C4.7218 21.0621 5.28263 21.2613 6.76032 21.5266C9.04851 21.9482 12.439 22.656 12.439 26.0637C12.439 29.3163 10.1723 31.1972 6.44839 31.1972C3.49455 31.1972 1.47692 30.268 0 28.8522L2.18414 25.5325Z" fill="#1D204F"/>
<path d="M13.8115 30.9316V17.7637H18.0133V30.9316H13.8115Z" fill="#1D204F"/>
<path d="M20.2607 28.5151V30.9325H22.5338L20.2607 28.5151Z" fill="#1D204F"/>
<path d="M31.5996 30.9321H35.8014V23.6113L31.5996 28.0811V30.9321Z" fill="#1D204F"/>
<path d="M48.4441 30.932L47.9026 29.029H42.5786L42.0371 30.932H37.4824L42.5993 16.1729H47.8833L53.0004 30.932H48.4441ZM45.241 20.1112L43.6603 25.3115H46.822L45.241 20.1112Z" fill="#1D204F"/>
<path d="M35.8017 14.0056V20.2444L31.5999 24.7151L25.7557 30.9322L22.8181 27.8073L22.8189 27.8053L20.2598 25.0828V18.8365L20.2615 18.8345L25.7567 24.6801L35.7965 14L35.8017 14.0056Z" fill="#550887"/>
<path d="M33.099 39.0897V34.6814H31.5996V33.4023H35.9683V34.6814H34.4772V39.0897H33.099Z" fill="#550887"/>
<path d="M35.624 37.0266C35.624 35.8663 36.4169 34.8691 37.732 34.8691C39.0625 34.8691 39.848 35.8668 39.848 37.0266C39.848 38.1864 39.0625 39.1926 37.732 39.1926C36.4177 39.1922 35.624 38.1862 35.624 37.0266ZM38.5817 37.0266C38.5817 36.4809 38.2773 36.0287 37.7322 36.0287C37.1951 36.0287 36.8987 36.4809 36.8987 37.0266C36.8987 37.5807 37.1951 38.0322 37.7322 38.0322C38.2773 38.0326 38.5815 37.5807 38.5815 37.0266H38.5817Z" fill="#550887"/>
<path d="M42.95 39.0897L42.1012 37.6322L41.7326 38.1011V39.0903H40.498V33.4023H41.7326V36.6171L42.9108 34.9713H44.4016L42.9748 36.8472L44.4737 39.0905L42.95 39.0897Z" fill="#550887"/>
<path d="M46.5557 34.8691C47.7019 34.8691 48.5356 35.7643 48.5356 37.1629V37.4443H45.7783C45.8504 37.828 46.1871 38.1775 46.7646 38.1775C47.1092 38.1775 47.4938 38.0326 47.7104 37.828L48.2314 38.6464C47.8468 39.0139 47.2064 39.1922 46.6124 39.1922C45.418 39.1922 44.4961 38.3652 44.4961 37.0262C44.4957 35.8326 45.3455 34.8691 46.5557 34.8691ZM45.7628 36.5917H47.3579C47.3258 36.3016 47.1258 35.8839 46.5563 35.8839C46.0186 35.8839 45.8104 36.2931 45.7622 36.5917H45.7628Z" fill="#550887"/>
<path d="M51.7661 39.09V36.7113C51.7661 36.2085 51.5176 36.0292 51.133 36.0292C50.7642 36.0292 50.5238 36.2419 50.3787 36.4301V39.0904H49.1445V34.9711H50.3786V35.474C50.6106 35.1839 51.068 34.8687 51.7172 34.8687C52.5991 34.8687 52.9998 35.4142 52.9998 36.1731V39.0894L51.7661 39.09Z" fill="#550887"/>
</g>
<defs>
<clipPath id="clip0_2561_3743">
<rect width="53" height="25.0898" fill="white" transform="translate(0 14)"/>
</clipPath>
</defs>
</svg>
